<?xml version="1.0" encoding="UTF-8" standalone="no"?>
<svg
   width="48"
   height="48"
   viewBox="0 0 48 48"
   fill="none"
   version="1.1"
   id="svg72514"
   sodipodi:docname="instagram_black_logo_icon_147122.svg"
   xmlns:inkscape="http://www.inkscape.org/namespaces/inkscape"
   xmlns:sodipodi="http://sodipodi.sourceforge.net/DTD/sodipodi-0.dtd"
   xmlns="http://www.w3.org/2000/svg"
   xmlns:svg="http://www.w3.org/2000/svg">
  <defs
     id="defs72518" />
  <sodipodi:namedview
     id="namedview72516"
     pagecolor="#ffffff"
     bordercolor="#000000"
     borderopacity="0.25"
     inkscape:showpageshadow="2"
     inkscape:pageopacity="0.0"
     inkscape:pagecheckerboard="0"
     inkscape:deskcolor="#d1d1d1"
     showgrid="false" />
  <path
     fill-rule="evenodd"
     clip-rule="evenodd"
     d="M 0,24 C 0,10.7452 10.7452,0 24,0 37.2548,0 48,10.7452 48,24 48,37.2548 37.2548,48 24,48 10.7452,48 0,37.2548 0,24 Z M 24.0012,11.2 c -3.4763,0 -3.9126,0.0152 -5.2779,0.0773 -1.3627,0.0624 -2.2928,0.2782 -3.1067,0.5947 -0.8419,0.3269 -1.556,0.7643 -2.2675,1.476 -0.712,0.7115 -1.1494,1.4256 -1.4774,2.2672 -0.3173,0.8142 -0.5333,1.7446 -0.5946,3.1067 -0.0611,1.3654 -0.0771,1.8019 -0.0771,5.2782 0,3.4763 0.0155,3.9113 0.0773,5.2766 0.0627,1.3627 0.2784,2.2928 0.5947,3.1067 0.3272,0.8419 0.7645,1.556 1.4763,2.2675 0.7112,0.712 1.4253,1.1504 2.2667,1.4774 0.8144,0.3165 1.7448,0.5322 3.1072,0.5946 1.3654,0.0622 1.8014,0.0774 5.2774,0.0774 3.4766,0 3.9115,-0.0152 5.2769,-0.0774 1.3626,-0.0624 2.2938,-0.2781 3.1083,-0.5946 0.8416,-0.327 1.5546,-0.7654 2.2658,-1.4774 0.712,-0.7115 1.1494,-1.4256 1.4774,-2.2672 0.3147,-0.8142 0.5307,-1.7446 0.5947,-3.1067 0.0613,-1.3654 0.0773,-1.8006 0.0773,-5.2769 0,-3.4763 -0.016,-3.9125 -0.0773,-5.2779 -0.064,-1.3627 -0.28,-2.2928 -0.5947,-3.1067 C 35.8,14.7736 35.3626,14.0595 34.6506,13.348 33.9386,12.636 33.2266,12.1987 32.384,11.872 31.5679,11.5555 30.6373,11.3397 29.2746,11.2773 27.9092,11.2152 27.4746,11.2 23.9972,11.2 Z"
     fill="#000000"
     id="path72508" />
  <path
     fill-rule="evenodd"
     clip-rule="evenodd"
     d="m 22.8529,13.5067 c 0.3408,-5e-4 0.7211,0 1.1483,0 3.4176,0 3.8227,0.0123 5.1723,0.0736 1.248,0.0571 1.9254,0.2656 2.3766,0.4408 0.5973,0.232 1.0232,0.5093 1.4709,0.9573 0.448,0.448 0.7254,0.8747 0.9579,1.4721 0.1752,0.4506 0.384,1.128 0.4408,2.376 0.0613,1.3493 0.0747,1.7547 0.0747,5.1707 0,3.416 -0.0134,3.8214 -0.0747,5.1707 -0.0571,1.248 -0.2656,1.9254 -0.4408,2.376 -0.232,0.5974 -0.5099,1.0227 -0.9579,1.4705 -0.448,0.448 -0.8733,0.7253 -1.4709,0.9573 -0.4507,0.176 -1.1286,0.384 -2.3766,0.4411 -1.3493,0.0613 -1.7547,0.0746 -5.1723,0.0746 -3.4179,0 -3.823,-0.0133 -5.1723,-0.0746 -1.248,-0.0576 -1.9254,-0.2662 -2.3768,-0.4414 -0.5974,-0.232 -1.0241,-0.5093 -1.4721,-0.9573 -0.448,-0.448 -0.7253,-0.8736 -0.9578,-1.4712 -0.1752,-0.4507 -0.384,-1.128 -0.4408,-2.376 -0.0614,-1.3494 -0.0736,-1.7547 -0.0736,-5.1729 0,-3.4182 0.0122,-3.8214 0.0736,-5.1707 0.057,-1.248 0.2656,-1.9254 0.4408,-2.3766 0.232,-0.5973 0.5098,-1.024 0.9578,-1.472 0.448,-0.448 0.8747,-0.7253 1.4721,-0.9579 0.4512,-0.176 1.1288,-0.384 2.3768,-0.4413 1.1808,-0.0533 1.6384,-0.0693 4.024,-0.072 z m 7.9809,2.1253 c -0.848,0 -1.536,0.6873 -1.536,1.5355 0,0.848 0.688,1.536 1.536,1.536 0.848,0 1.536,-0.688 1.536,-1.536 0,-0.848 -0.688,-1.5355 -1.536,-1.5355 z m -6.8326,1.7947 c -3.6302,0 -6.5734,2.9433 -6.5734,6.5734 0,3.6302 2.9432,6.5721 6.5734,6.5721 3.6302,0 6.5723,-2.9419 6.5723,-6.5721 0,-3.6301 -2.9421,-6.5734 -6.5723,-6.5734 z"
     fill="#000000"
     id="path72510" />
  <path
     fill-rule="evenodd"
     clip-rule="evenodd"
     d="m 24.0012,19.7334 c 2.3563,0 4.2667,1.9102 4.2667,4.2667 0,2.3563 -1.9104,4.2667 -4.2667,4.2667 -2.3566,0 -4.2667,-1.9104 -4.2667,-4.2667 0,-2.3565 1.9101,-4.2667 4.2667,-4.2667 z"
     fill="#000000"
     id="path72512" />
  <path
     style="fill:#8e6ee9;stroke-width:0.10084"
     d="M 22.134454,47.889293 C 16.107063,47.285059 11.001565,44.885946 6.9209504,40.740348 1.555281,35.289231 -0.87995235,27.528613 0.40221137,19.966387 1.9692711,10.723837 8.9717865,3.1382469 18.086391,0.80970691 20.29644,0.24509784 21.442212,0.10941508 24,0.10941508 c 2.557788,0 3.70356,0.13568276 5.913609,0.70029183 4.165287,1.06412029 7.999027,3.25680999 11.033771,6.31071369 1.927149,1.9393164 3.307385,3.8848544 4.534849,6.3921844 1.483948,3.03125 2.242056,5.91362 2.400294,9.12605 0.214142,4.347352 -0.534907,8.042573 -2.401824,11.84874 -2.379769,4.851738 -6.169528,8.656909 -10.942884,10.987384 -2.292445,1.119231 -4.621442,1.852262 -7.058823,2.2217 -1.054426,0.15982 -4.451227,0.282367 -5.344538,0.192814 z m 7.159664,-11.131858 c 2.603076,-0.178331 4.001556,-0.718456 5.34702,-2.065142 1.248889,-1.25002 1.825107,-2.547496 2.061495,-4.641873 0.135261,-1.198406 0.134953,-11.046972 -4.03e-4,-12.153905 -0.254061,-2.078037 -0.826968,-3.353543 -2.061114,-4.588808 -1.345442,-1.346686 -2.743922,-1.886811 -5.346998,-2.065142 -1.82484,-0.125016 -8.763396,-0.125016 -10.588236,0 -2.600911,0.178183 -3.997129,0.717158 -5.35299,2.066392 -0.642418,0.639277 -0.903998,0.992576 -1.234293,1.667083 -0.88415,1.805556 -0.950062,2.517368 -0.90169,9.737758 l 0.03846,5.739984 0.26538,0.982053 c 0.38567,1.427194 0.872877,2.290342 1.838118,3.256458 1.29947,1.300649 2.7635,1.89098 5.09492,2.054386 1.671521,0.117155 9.178519,0.124604 10.840336,0.01076 z"
     id="path73363" />
  <path
     style="fill:#8e6ee9;stroke-width:0.10084"
     d="m 18.445145,34.333761 c -2.516145,-0.221666 -3.985084,-1.3388 -4.57719,-3.480971 -0.39363,-1.424112 -0.3995,-12.262253 -0.0074,-13.701719 0.492163,-1.806912 1.606128,-2.864639 3.534423,-3.355989 0.637336,-0.1624 1.273839,-0.179888 6.554622,-0.180087 6.352776,-2.39e-4 6.624339,0.01998 7.848227,0.5843 1.106242,0.510076 1.975801,1.606417 2.341189,2.951776 0.402414,1.48169 0.396456,12.230337 -0.0076,13.706072 -0.494505,1.806096 -1.66429,2.905799 -3.560332,3.347034 -0.551518,0.128345 -1.611446,0.161591 -5.915605,0.185551 -2.884033,0.01605 -5.678676,-0.0091 -6.210317,-0.05597 z m 7.01704,-3.879914 c 1.561821,-0.326783 3.117028,-1.394434 4.028604,-2.765639 C 32.425276,23.274109 29.289126,17.394958 24,17.394958 c -5.289126,0 -8.425276,5.879151 -5.490789,10.29325 0.897823,1.350518 2.459197,2.433784 3.978184,2.760024 0.865885,0.18597 2.101656,0.188302 2.97479,0.0056 z m 6.177392,-11.949101 c 0.479616,-0.292425 0.729347,-0.761979 0.729794,-1.372186 7.06e-4,-0.946025 -0.710898,-1.60435 -1.64579,-1.522594 -1.494852,0.130724 -2.006642,2.027673 -0.774053,2.869026 0.435445,0.297229 1.225059,0.309262 1.690049,0.02575 z"
     id="path73365" />
  <path
     style="fill:#8e6ee9;stroke-width:0.10084"
     d="M 22.840336,28.04916 C 21.704002,27.672843 20.713256,26.840799 20.240224,25.865546 19.182,23.683797 20.095903,21.198018 22.34318,20.145594 22.877914,19.895173 23.05319,19.865546 24,19.865546 c 0.982616,0 1.107987,0.02329 1.741899,0.323558 1.712123,0.810994 2.70783,2.646323 2.410185,4.442552 -0.23009,1.388548 -1.132207,2.577127 -2.410185,3.175524 -0.582613,0.272802 -0.816553,0.323939 -1.590638,0.347701 -0.55761,0.01712 -1.063099,-0.02365 -1.310925,-0.105721 z"
     id="path73367" />
</svg>
