<?xml version="1.0" encoding="UTF-8" standalone="no"?>
<svg
   viewBox="0 0 155.99 35.81"
   version="1.1"
   id="svg4334"
   sodipodi:docname="logo.svg"
   inkscape:export-filename="logo2.svg"
   inkscape:export-xdpi="96"
   inkscape:export-ydpi="96"
   width="155.99001"
   height="35.810001"
   inkscape:version="1.2.2 (b0a8486, 2022-12-01)"
   xmlns:inkscape="http://www.inkscape.org/namespaces/inkscape"
   xmlns:sodipodi="http://sodipodi.sourceforge.net/DTD/sodipodi-0.dtd"
   xmlns="http://www.w3.org/2000/svg"
   xmlns:svg="http://www.w3.org/2000/svg"
   xmlns:rdf="http://www.w3.org/1999/02/22-rdf-syntax-ns#"
   xmlns:cc="http://creativecommons.org/ns#"
   xmlns:dc="http://purl.org/dc/elements/1.1/">
  <sodipodi:namedview
     id="namedview4336"
     pagecolor="#ffffff"
     bordercolor="#000000"
     borderopacity="0.25"
     inkscape:showpageshadow="2"
     inkscape:pageopacity="0.0"
     inkscape:pagecheckerboard="0"
     inkscape:deskcolor="#d1d1d1"
     showgrid="false"
     inkscape:zoom="10.757099"
     inkscape:cx="95.053505"
     inkscape:cy="17.98812"
     inkscape:window-width="1366"
     inkscape:window-height="704"
     inkscape:window-x="0"
     inkscape:window-y="0"
     inkscape:window-maximized="1"
     inkscape:current-layer="svg4334" />
  <defs
     id="defs4302">
    <style
       id="style4300">.a{fill:#5830e0;}.b{fill:#081828;}</style>
  </defs>
  <title
     id="title4304">ns</title>
  <text
     xml:space="preserve"
     style="font-style:normal;font-variant:normal;font-weight:bold;font-stretch:normal;font-size:24px;font-family:Arial;-inkscape-font-specification:'Arial Bold';text-orientation:upright;fill:#8e6ee9;fill-opacity:1"
     x="36.460907"
     y="24.967409"
     id="text5651"><tspan
       sodipodi:role="line"
       id="tspan5649"
       x="36.460907"
       y="24.967409">P</tspan></text>
  <path
     id="text5655"
     style="font-style:normal;font-variant:normal;font-weight:bold;font-stretch:normal;font-size:24px;font-family:Arial;-inkscape-font-specification:'Arial Bold';text-orientation:upright;fill:#8e6ee9;fill-opacity:1"
     d="m 54.505859,12.521484 v 12.445313 h 3.292969 V 12.521484 Z" />
  <text
     xml:space="preserve"
     style="font-style:normal;font-variant:normal;font-weight:bold;font-stretch:normal;font-size:24px;font-family:Arial;-inkscape-font-specification:'Arial Bold';text-orientation:upright;fill:#8e6ee9;fill-opacity:1"
     x="60.43716"
     y="25.011793"
     id="text5659"><tspan
       sodipodi:role="line"
       id="tspan5657"
       x="60.43716"
       y="25.011793">c</tspan></text>
  <text
     xml:space="preserve"
     style="font-style:normal;font-variant:normal;font-weight:bold;font-stretch:normal;font-size:24px;font-family:Arial;-inkscape-font-specification:'Arial Bold';text-orientation:upright;fill:#8e6ee9;fill-opacity:1"
     x="75.162514"
     y="25.013548"
     id="text5663"><tspan
       sodipodi:role="line"
       id="tspan5661"
       x="75.162514"
       y="25.013548">o</tspan></text>
  <text
     xml:space="preserve"
     style="font-style:normal;font-variant:normal;font-weight:bold;font-stretch:normal;font-size:24px;font-family:Arial;-inkscape-font-specification:'Arial Bold';text-orientation:upright;fill:#ffffff;fill-opacity:1"
     x="95.018814"
     y="25.260656"
     id="text5667"><tspan
       sodipodi:role="line"
       id="tspan5665"
       x="95.018814"
       y="25.260656">S</tspan></text>
  <text
     xml:space="preserve"
     style="font-style:normal;font-variant:normal;font-weight:bold;font-stretch:normal;font-size:24px;font-family:Arial;-inkscape-font-specification:'Arial Bold';text-orientation:upright;fill:#ffffff;fill-opacity:1"
     x="111.65706"
     y="24.967688"
     id="text5671"><tspan
       sodipodi:role="line"
       id="tspan5669"
       x="111.65706"
       y="24.967688">h</tspan></text>
  <text
     xml:space="preserve"
     style="font-style:normal;font-variant:normal;font-weight:bold;font-stretch:normal;font-size:24px;font-family:Arial;-inkscape-font-specification:'Arial Bold';text-orientation:upright;fill:#ffffff;fill-opacity:1"
     x="126.51806"
     y="25.265848"
     id="text6402"><tspan
       sodipodi:role="line"
       id="tspan6400"
       x="126.51806"
       y="25.265848">o</tspan></text>
  <text
     xml:space="preserve"
     style="font-style:normal;font-variant:normal;font-weight:bold;font-stretch:normal;font-size:24px;font-family:Arial;-inkscape-font-specification:'Arial Bold';text-orientation:upright;fill:#ffffff;fill-opacity:1"
     x="141.25009"
     y="25.265562"
     id="text6406"><tspan
       sodipodi:role="line"
       id="tspan6404"
       x="141.25009"
       y="25.265562">p</tspan></text>
  <metadata
     id="metadata61929">
    <rdf:RDF>
      <cc:Work
         rdf:about="">
        <dc:title>ns</dc:title>
      </cc:Work>
    </rdf:RDF>
  </metadata>
  <path
     style="fill:#ffffff;stroke-width:0.13338"
     d="M 16.371051,33.546323 C 12.28058,33.154039 8.9802525,31.653996 6.2811098,28.960321 3.0399535,25.725725 1.3608158,21.424463 1.5430479,16.82335 1.6619371,13.821569 2.3969734,11.52494 4.0281349,9.0586723 8.6507707,2.0693768 17.470681,-0.24707462 24.883176,3.5813281 c 6.614503,3.416258 9.862998,10.9542399 7.888867,18.3057589 -1.355714,5.04857 -5.412004,9.27902 -10.465622,10.914967 -1.729418,0.559855 -4.385501,0.892911 -5.93537,0.744269 z m 4.690571,-4.547904 c 1.53594,-0.505483 2.798068,-1.205753 3.426103,-1.900916 0.430774,-0.476812 0.485916,-0.618135 0.483112,-1.238104 -0.0064,-1.426227 -0.986648,-3.053854 -4.641112,-7.706613 -3.166298,-4.031243 -4.461251,-5.150742 -6.893013,-5.959086 -0.957893,-0.318415 -1.271673,-0.355584 -3.06772,-0.363381 -1.8152953,-0.0078 -2.6195679,0.04935 -3.224667,0.327431 -0.9126641,0.419434 -1.1511412,1.208197 -1.5932487,2.182425 -0.6925211,1.526037 -0.5965949,4.068503 0.2446569,6.484547 1.4261708,4.095905 4.1393692,6.855563 7.9835868,8.120297 1.439067,0.473449 1.96376,0.537524 4.058902,0.49572 1.805271,-0.03607 2.120111,-0.07923 3.2234,-0.44232 z m 7.930449,-7.773559 c 0.119957,-0.408336 0.174599,-1.410337 0.170925,-3.134409 -0.0046,-2.163884 -0.04689,-2.68425 -0.289362,-3.561018 C 27.708126,10.314967 24.550921,7.1455703 20.372423,5.9953975 19.447524,5.7408097 18.994471,5.7036622 16.971258,5.7165244 c -1.95764,0.012458 -2.506248,0.062001 -3.401167,0.307229 -0.586868,0.1608173 -1.320241,0.3359199 -1.629717,0.3891201 -1.254735,0.2156916 -2.5058658,1.3938852 -2.1979088,2.0697788 0.1868775,0.4101513 0.8263258,0.6462185 2.9861578,0.901481 3.210818,0.3794709 4.853495,1.1852797 7.207753,3.5357087 2.034602,2.031294 3.526448,4.02835 5.567112,7.171295 1.047872,1.613887 1.965509,3.010015 2.039192,3.102512 0.184506,0.231603 1.213657,-1.166352 1.449391,-1.968789 z"
     id="path61774"
     sodipodi:nodetypes="csscsscccscsscssssccsccscssscsscs" />
  <circle
     style="fill:#ffffff;stroke-width:0.307489"
     id="path61701"
     cx="9.8613729"
     cy="16.266874"
     r="1.7446686" />
</svg>
