<?xml version="1.0" encoding="UTF-8" standalone="no"?>
<svg
   width="32"
   height="32"
   viewBox="0 0 32 32"
   version="1.1"
   id="svg64800"
   sodipodi:docname="telegram_logo_icon_144811.svg"
   xmlns:inkscape="http://www.inkscape.org/namespaces/inkscape"
   xmlns:sodipodi="http://sodipodi.sourceforge.net/DTD/sodipodi-0.dtd"
   xmlns="http://www.w3.org/2000/svg"
   xmlns:svg="http://www.w3.org/2000/svg">
  <defs
     id="defs64804" />
  <sodipodi:namedview
     id="namedview64802"
     pagecolor="#ffffff"
     bordercolor="#000000"
     borderopacity="0.25"
     inkscape:showpageshadow="2"
     inkscape:pageopacity="0.0"
     inkscape:pagecheckerboard="0"
     inkscape:deskcolor="#d1d1d1"
     showgrid="false" />
  <path
     d="M 16,0.5 C 7.437,0.5 0.5,7.438 0.5,16 0.5,24.562 7.438,31.5 16,31.5 24.563,31.5 31.5,24.562 31.5,16 31.5,7.438 24.562,0.5 16,0.5 Z m 7.613,10.619 -2.544,11.988 c -0.188,0.85 -0.694,1.056 -1.4,0.656 l -3.875,-2.856 -1.869,1.8 c -0.206,0.206 -0.381,0.381 -0.781,0.381 L 13.419,19.144 20.6,12.656 C 20.913,12.381 20.531,12.225 20.118,12.5 L 11.243,18.087 7.418,16.893 C 6.587,16.631 6.568,16.062 7.593,15.662 L 22.537,9.899 c 0.694,-0.25 1.3,0.169 1.075,1.219 z"
     id="path64798" />
  <path
     style="fill:#8e6ee9;stroke-width:0.0672269"
     d="M 14.92437,31.427618 C 11.269582,31.142311 7.9026279,29.640289 5.2854955,27.127649 2.2845813,24.24655 0.53781513,20.154141 0.53781513,16.004553 0.53781513,9.3935899 4.832392,3.4307326 11.092437,1.3498607 12.794691,0.78402236 14.212627,0.55410614 16,0.55410614 c 3.987873,0 7.744803,1.49652396 10.61996,4.23032186 3.462171,3.2919518 5.234258,8.010539 4.769428,12.699694 -0.652406,6.58141 -5.432476,12.047721 -11.859976,13.56263 -1.435975,0.338447 -3.238602,0.487536 -4.605042,0.380866 z m 5.800776,-7.596408 c 0.09452,-0.07435 0.219501,-0.263423 0.277743,-0.420168 0.200275,-0.538999 2.660977,-12.336389 2.660977,-12.757574 0,-0.346135 -0.0261,-0.428452 -0.196167,-0.618794 -0.374647,-0.4193032 -0.05007,-0.5237375 -8.476102,2.727214 -4.196639,1.619155 -7.7431358,3.017734 -7.8811045,3.10795 -0.3818936,0.249718 -0.4294321,0.614692 -0.1110002,0.8522 0.216419,0.161419 4.1557217,1.407961 4.2915607,1.35801 0.05378,-0.01978 2.114562,-1.30512 4.57952,-2.856321 2.464959,-1.551201 4.548388,-2.820366 4.629842,-2.820366 0.09431,0 0.140205,0.03526 0.126363,0.09708 -0.01195,0.05339 -1.519215,1.447913 -3.349467,3.098935 -1.830252,1.651022 -3.454707,3.127506 -3.6099,3.281075 l -0.282169,0.279216 -0.103519,1.512605 c -0.05694,0.831933 -0.122106,1.716807 -0.144822,1.966386 l -0.0413,0.453782 h 0.17931 c 0.283213,0 0.411645,-0.09742 1.476792,-1.120178 0.552091,-0.530121 1.028679,-0.963856 1.059085,-0.963856 0.03041,0 0.919771,0.637164 1.976365,1.41592 1.056594,0.778756 1.986728,1.442384 2.066965,1.47473 0.268385,0.108195 0.688871,0.07544 0.871031,-0.06784 z"
     id="path67170" />
  <path
     style="fill:#8e6ee9;stroke-width:0.0672269"
     d="M 14.722689,31.387828 C 12.292684,31.088226 10.440298,30.516217 8.5714286,29.488346 4.2325236,27.101964 1.2657431,22.682645 0.67581628,17.727037 0.56763074,16.818237 0.58385623,15.007176 0.70887234,14.037376 1.4488344,8.2971919 5.4337311,3.3875889 10.926911,1.4482136 12.588463,0.86160009 14.09186,0.61235296 15.966387,0.61272251 c 2.523062,4.9748e-4 4.653457,0.49105129 6.866495,1.58110839 4.554784,2.2435105 7.802063,6.7841052 8.455904,11.8236921 0.133437,1.028487 0.13752,3.02216 0.0081,3.932057 -0.743813,5.227555 -3.845954,9.555808 -8.506924,11.869264 -1.517109,0.75301 -2.926984,1.189594 -4.672269,1.446821 -0.660409,0.09733 -2.933061,0.179111 -3.394958,0.122163 z m 6.087701,-7.599819 c 0.226932,-0.244863 0.271159,-0.415222 1.032954,-3.978875 1.064922,-4.981671 1.820522,-8.8115 1.820522,-9.227482 0,-0.33245 -0.02647,-0.410898 -0.20211,-0.5989179 -0.189245,-0.2025875 -0.222064,-0.2133667 -0.5156,-0.1693486 -0.611083,0.091638 -1.789305,0.5252685 -8.844573,3.2551405 -5.2534976,2.03272 -6.9013578,2.699013 -7.1106313,2.875106 -0.2480609,0.20873 -0.2761797,0.552552 -0.061543,0.752517 0.1356274,0.126355 2.0889979,0.793237 3.5998793,1.229001 l 0.747776,0.215671 3.99172,-2.487264 c 4.77735,-2.976794 5.148348,-3.200787 5.246985,-3.167909 0.04206,0.01402 -0.782835,0.811089 -1.833095,1.771267 -2.021489,1.848101 -4.514238,4.116621 -5.019633,4.568103 l -0.302685,0.270397 -0.121682,1.712797 c -0.06692,0.942038 -0.134835,1.841368 -0.150911,1.998511 l -0.02923,0.285714 h 0.237498 c 0.285731,0 0.498383,-0.150077 1.325819,-0.935683 0.332773,-0.315951 0.732226,-0.693394 0.887674,-0.838763 l 0.282633,-0.264306 0.255182,0.169299 c 0.140351,0.09311 1.051902,0.748471 2.02567,1.45635 l 1.770488,1.287053 h 0.40079 c 0.347333,0 0.422839,-0.02379 0.566103,-0.178378 z"
     id="path67172" />
  <path
     style="fill:#8e6ee9;stroke-width:0.0672269"
     d="M 14.722689,31.387828 C 11.505665,30.991192 9.0492437,30.035334 6.6667991,28.253068 5.8008516,27.605267 4.389886,26.187191 3.7231082,25.294543 2.051289,23.056394 0.99917357,20.443252 0.67563129,17.725515 0.55344975,16.699197 0.58242446,14.889382 0.73797123,13.831644 1.7474024,6.9673837 7.1588975,1.6284577 14.05042,0.69771749 c 0.825693,-0.11151459 3.012699,-0.1109313 3.831933,0.001022 3.438274,0.46986091 6.35387,1.86335951 8.795944,4.20398901 2.466707,2.3642396 4.177255,5.7421775 4.609873,9.1034385 0.151606,1.177914 0.14103,3.036345 -0.02359,4.145094 -1.016082,6.843557 -6.295274,12.110957 -13.143887,13.114527 -0.663817,0.09727 -2.936772,0.178906 -3.398004,0.12204 z m 5.988245,-7.507613 c 0.308082,-0.238268 0.391237,-0.556945 1.433629,-5.494112 0.894242,-4.235474 1.464379,-7.147014 1.500765,-7.664016 0.03476,-0.493911 0.03098,-0.50967 -0.175077,-0.7302584 -0.197726,-0.2116673 -0.229485,-0.2226225 -0.519347,-0.179155 -0.596691,0.08948 -2.622861,0.8406774 -10.076954,3.7360094 -4.5365766,1.762104 -5.7444065,2.256531 -5.9235184,2.424798 -0.225184,0.21155 -0.2173119,0.543513 0.017264,0.728031 0.1705998,0.134194 2.6307154,0.972514 3.7708584,1.284975 l 0.548112,0.150211 3.818852,-2.384832 c 4.533779,-2.831298 5.309656,-3.299749 5.409895,-3.266336 0.07967,0.02656 -0.894181,0.935242 -4.767829,4.448764 -2.266789,2.056051 -2.365617,2.155739 -2.39928,2.420169 -0.01931,0.151684 -0.08201,0.986713 -0.139333,1.855621 -0.05732,0.868908 -0.118915,1.647899 -0.13687,1.731092 -0.02941,0.136265 -0.0071,0.151261 0.225442,0.151261 0.289848,0 0.476687,-0.134763 1.391533,-1.003686 0.295798,-0.28095 0.665093,-0.628713 0.820654,-0.772805 l 0.282839,-0.261988 0.278281,0.184158 c 0.153055,0.101287 0.948467,0.670623 1.767582,1.265191 0.819114,0.594569 1.608704,1.166994 1.754644,1.272056 0.216877,0.156131 0.333533,0.190633 0.638655,0.188886 0.205321,-0.0012 0.420962,-0.03899 0.479203,-0.08403 z"
     id="path67174" />
  <path
     style="fill:#8e6ee9;stroke-width:0.0672269"
     d="M 14.722689,31.387695 C 12.080082,31.063367 10.07228,30.40277 8.0664094,29.197681 4.809671,27.241095 2.3497386,24.081246 1.2443978,20.434624 0.77850349,18.897595 0.60258832,17.661826 0.60354681,15.932773 0.60573188,11.991027 2.0913866,8.2973499 4.8448416,5.3879444 8.9543866,1.045642 15.145952,-0.50061714 20.87395,1.3848924 c 5.476141,1.8026048 9.539518,6.6708313 10.389364,12.4472276 0.181398,1.232955 0.180084,3.110297 -0.0031,4.357647 -0.695443,4.736769 -3.595862,8.946026 -7.764466,11.268246 -1.699527,0.946762 -3.633427,1.587116 -5.546218,1.836467 -0.600906,0.07833 -2.824726,0.142573 -3.226891,0.09322 z m 6.037821,-7.58909 c 0.251909,-0.211968 0.32711,-0.485861 1.019855,-3.714475 1.204715,-5.614709 1.883501,-9.071134 1.883501,-9.590925 0,-0.214224 -0.0456,-0.328291 -0.197892,-0.4950295 -0.10884,-0.1191644 -0.256716,-0.2166629 -0.328613,-0.2166629 -0.412903,0 -1.968013,0.5614344 -7.91047,2.8558834 -6.1675021,2.38134 -8.1546054,3.189829 -8.3027014,3.378102 -0.1863481,0.236903 -0.1730215,0.515693 0.032374,0.677257 0.1668423,0.131238 2.4538933,0.913334 3.6768144,1.257349 l 0.650186,0.1829 3.820402,-2.383054 c 4.533186,-2.827666 5.311799,-3.297636 5.409397,-3.265104 0.07767,0.02589 -0.958085,0.996779 -4.47975,4.199189 -1.183193,1.075931 -2.269834,2.079628 -2.414757,2.230438 l -0.263495,0.274199 -0.118476,1.666168 c -0.06516,0.916393 -0.131948,1.79474 -0.148414,1.951883 -0.02951,0.281647 -0.02695,0.285711 0.180291,0.285463 0.304274,-3.37e-4 0.505614,-0.146973 1.554767,-1.132128 0.517647,-0.486071 0.961762,-0.883913 0.986921,-0.884096 0.02516,-2.02e-4 0.494068,0.322802 1.042017,0.717742 3.324415,2.396108 2.977031,2.171591 3.360862,2.172164 0.273207,4.03e-4 0.390541,-0.03546 0.547181,-0.167263 z"
     id="path67176" />
  <path
     style="fill:#8e6ee9;stroke-width:0.0672269"
     d="M 14.236988,31.330575 C 13.877415,31.278798 13.332877,31.186292 13.026904,31.125008 7.2620881,29.970344 2.6748376,25.676008 1.1116131,19.970556 0.45008755,17.556122 0.42163456,14.715133 1.0347638,12.297265 1.7533775,9.4634192 3.3072979,6.8122471 5.4237769,4.8090882 9.5668504,0.88784208 15.421862,-0.40979435 20.87395,1.3848924 c 4.921422,1.6200057 8.803042,5.8050266 10.078599,10.8663766 0.367116,1.456703 0.40597,1.815479 0.40597,3.748731 0,1.461084 -0.02346,1.939696 -0.120286,2.453782 -0.309044,1.640859 -0.709487,2.870248 -1.390492,4.268907 -2.246427,4.613743 -6.528311,7.756255 -11.629254,8.534809 -0.99823,0.152359 -3.155887,0.191961 -3.981499,0.07308 z m 6.45432,-7.469109 c 0.31713,-0.222128 0.367491,-0.404373 1.224972,-4.432895 1.115159,-5.239122 1.747586,-8.465265 1.747586,-8.91481 0,-0.20635 -0.04991,-0.318096 -0.229695,-0.5142739 l -0.229693,-0.25064 -0.492996,0.1249976 c -0.68898,0.1746893 -1.630144,0.5193323 -5.938373,2.1745633 -4.863532,1.86858 -8.6844078,3.371275 -9.3270707,3.668204 -0.2800403,0.129387 -0.5422294,0.297032 -0.5826431,0.372546 -0.1085156,0.202763 -0.089396,0.4474 0.044168,0.565143 0.2028552,0.178826 2.6615604,1.020036 3.9797408,1.361611 l 0.408188,0.105772 3.814439,-2.378491 c 4.47888,-2.792804 5.304819,-3.291218 5.40091,-3.259187 0.08351,0.02784 -0.656589,0.724678 -4.174707,3.930675 -1.423529,1.297236 -2.675963,2.451933 -2.783185,2.565993 l -0.19495,0.207382 -0.121221,1.632862 c -0.06667,0.898075 -0.122642,1.776561 -0.124378,1.952191 -0.003,0.306993 0.0042,0.319328 0.188438,0.319328 0.251112,0 0.536259,-0.215249 1.589716,-1.200024 0.480561,-0.44923 0.897227,-0.816783 0.925925,-0.816783 0.0287,0 0.872587,0.592976 1.875307,1.317725 1.002721,0.724749 1.917147,1.375056 2.032058,1.445127 0.256002,0.156106 0.760301,0.168086 0.967464,0.02298 z"
     id="path67178" />
  <path
     style="fill:#8e6ee9;stroke-width:0.0168067"
     d="m 17.210084,15.683108 c 0,-0.0048 0.319497,-0.29852 0.709993,-0.652661 1.905045,-1.727683 2.718578,-2.49211 2.718578,-2.554479 0,-0.03775 -0.06341,-0.08101 -0.118751,-0.08101 -0.09091,0 -1.227514,0.681401 -3.483268,2.088247 -0.488253,0.304509 -0.891305,0.550081 -0.895671,0.545715 -0.01347,-0.01347 4.060668,-2.570462 4.160284,-2.611051 0.260923,-0.106314 0.472212,-0.03413 0.376784,0.128715 -0.02616,0.04465 -3.413018,3.123398 -3.453894,3.13969 -0.0077,0.0031 -0.01406,0.0017 -0.01406,-0.0032 z"
     id="path67182" />
  <path
     style="fill:#8e6ee9;stroke-width:0.0168067"
     d="m 19.051261,13.203391 c 0.0147,-0.0139 0.672939,-0.424273 1.079034,-0.672717 0.181926,-0.1113 0.287951,-0.152523 0.39229,-0.152523 0.125427,0 0.180542,0.04257 0.160177,0.12371 -0.0093,0.03702 -0.580026,0.582173 -0.609497,0.582173 -0.0073,0 0.116907,-0.127193 0.276046,-0.28265 0.230536,-0.225202 0.289344,-0.291692 0.289344,-0.32714 0,-0.02829 -0.01312,-0.05151 -0.03604,-0.06378 -0.09049,-0.04843 -0.19168,8.42e-4 -1.026093,0.499625 -0.467836,0.279657 -0.572862,0.338301 -0.525265,0.293298 z"
     id="path67184" />
</svg>
